<svg width="795" height="149" viewBox="0 0 795 149" fill="none" xmlns="http://www.w3.org/2000/svg">
<path d="M58.6943 20.0085L51.7839 23.9983C51.5836 24.1139 51.4213 24.3951 51.4213 24.6263V70.2622C51.4213 70.4934 51.5836 70.5872 51.7839 70.4715L58.6943 66.4818C58.8946 66.3662 59.0569 66.085 59.0569 65.8538V20.2179C59.0569 19.9866 58.8946 19.8929 58.6943 20.0085Z" fill="black"/>
<path d="M91.4364 1.08396L65.9975 15.7711C65.7973 15.8867 65.6349 16.1679 65.6349 16.3991V24.3786C65.6349 24.6099 65.7973 24.7036 65.9975 24.588L91.4364 9.90085C91.6366 9.78523 91.799 9.50405 91.799 9.27281V1.29331C91.799 1.06207 91.6366 0.968339 91.4364 1.08396Z" fill="black"/>
<path d="M91.4385 19.9205L65.9997 34.6076C65.7995 34.7232 65.6371 35.0044 65.6371 35.2357V43.2152C65.6371 43.4464 65.7995 43.5401 65.9997 43.4245L91.4385 28.7374C91.6388 28.6218 91.8011 28.3406 91.8011 28.1093V20.1298C91.8011 19.8986 91.6388 19.8049 91.4385 19.9205Z" fill="black"/>
<path d="M91.4385 38.7584L65.9997 53.4455C65.7995 53.5611 65.6371 53.8423 65.6371 54.0735V62.053C65.6371 62.2843 65.7995 62.378 65.9997 62.2624L91.4385 47.5753C91.6388 47.4597 91.8011 47.1785 91.8011 46.9472V38.9677C91.8011 38.7365 91.6388 38.6428 91.4385 38.7584Z" fill="black"/>
<path d="M127.725 89.1778L127.725 81.1983C127.725 80.9671 127.563 80.6859 127.363 80.5703L87.841 57.7523C87.6407 57.6367 87.4784 57.7305 87.4784 57.9617L87.4784 65.9412C87.4784 66.1724 87.6407 66.4536 87.841 66.5692L127.363 89.3872C127.563 89.5028 127.725 89.4091 127.725 89.1778Z" fill="black"/>
<path d="M127.743 126.997L127.743 97.6229C127.743 97.3917 127.58 97.1105 127.38 96.9949L120.47 93.0051C120.269 92.8895 120.107 92.9832 120.107 93.2145L120.107 122.589C120.107 122.82 120.269 123.101 120.47 123.217L127.38 127.207C127.58 127.322 127.743 127.228 127.743 126.997Z" fill="black"/>
<path d="M111.429 117.578L111.429 88.2039C111.429 87.9726 111.267 87.6914 111.067 87.5758L104.156 83.5861C103.956 83.4704 103.794 83.5642 103.794 83.7954L103.794 113.17C103.794 113.401 103.956 113.682 104.156 113.798L111.067 117.787C111.267 117.903 111.429 117.809 111.429 117.578Z" fill="black"/>
<path d="M95.1157 108.159L95.1157 78.785C95.1157 78.5538 94.9534 78.2726 94.7531 78.157L87.8427 74.1672C87.6424 74.0516 87.4801 74.1454 87.4801 74.3766L87.4801 103.751C87.4801 103.982 87.6424 104.263 87.8427 104.379L94.7531 108.369C94.9534 108.484 95.1157 108.391 95.1157 108.159Z" fill="black"/>
<path d="M113.16 34.7067L106.249 30.7169C106.049 30.6013 105.724 30.6013 105.524 30.7169L66.0022 53.5349C65.802 53.6505 65.802 53.8379 66.0022 53.9536L72.9127 57.9433C73.113 58.0589 73.4376 58.0589 73.6379 57.9433L113.16 35.1254C113.36 35.0097 113.36 34.8223 113.16 34.7067Z" fill="black"/>
<path d="M145.921 53.6013L120.483 38.9142C120.282 38.7986 119.958 38.7986 119.757 38.9142L112.847 42.904C112.647 43.0196 112.647 43.207 112.847 43.3227L138.286 58.0098C138.486 58.1254 138.811 58.1254 139.011 58.0098L145.921 54.02C146.122 53.9044 146.122 53.7169 145.921 53.6013Z" fill="black"/>
<path d="M129.608 63.0209L104.169 48.3338C103.969 48.2182 103.644 48.2182 103.444 48.3338L96.5334 52.3236C96.3331 52.4392 96.3331 52.6267 96.5334 52.7423L121.972 67.4294C122.172 67.545 122.497 67.545 122.697 67.4294L129.608 63.4396C129.808 63.324 129.808 63.1366 129.608 63.0209Z" fill="black"/>
<path d="M113.294 72.4392L87.8555 57.7521C87.6553 57.6365 87.3306 57.6365 87.1303 57.7521L80.2199 61.7418C80.0196 61.8575 80.0196 62.0449 80.2199 62.1605L105.659 76.8477C105.859 76.9633 106.184 76.9633 106.384 76.8477L113.294 72.8579C113.495 72.7423 113.495 72.5548 113.294 72.4392Z" fill="black"/>
<path d="M87.7627 128.993L94.6731 125.003C94.8734 124.888 95.0357 124.607 95.0357 124.375L95.0357 78.7395C95.0357 78.5083 94.8734 78.4146 94.6731 78.5302L87.7627 82.5199C87.5624 82.6356 87.4001 82.9167 87.4001 83.148L87.4001 128.784C87.4001 129.015 87.5624 129.109 87.7627 128.993Z" fill="black"/>
<path d="M55.0184 147.918L80.4572 133.231C80.6575 133.115 80.8198 132.834 80.8198 132.603L80.8198 124.623C80.8198 124.392 80.6575 124.299 80.4572 124.414L55.0184 139.101C54.8181 139.217 54.6558 139.498 54.6558 139.729L54.6558 147.709C54.6558 147.94 54.8181 148.034 55.0184 147.918Z" fill="black"/>
<path d="M55.0184 129.081L80.4572 114.394C80.6575 114.278 80.8198 113.997 80.8198 113.766L80.8198 105.786C80.8198 105.555 80.6575 105.461 80.4572 105.577L55.0184 120.264C54.8181 120.38 54.6558 120.661 54.6558 120.892L54.6558 128.872C54.6558 129.103 54.8181 129.197 55.0184 129.081Z" fill="black"/>
<path d="M55.0184 110.242L80.4572 95.555C80.6575 95.4394 80.8198 95.1582 80.8198 94.9269L80.8198 86.9474C80.8198 86.7162 80.6575 86.6225 80.4572 86.7381L55.0184 101.425C54.8181 101.541 54.6558 101.822 54.6558 102.053L54.6558 110.033C54.6558 110.264 54.8181 110.358 55.0184 110.242Z" fill="black"/>
<path d="M33.2972 114.432L40.2076 118.422C40.4079 118.537 40.7326 118.537 40.9328 118.422L80.4547 95.6037C80.6549 95.4881 80.6549 95.3006 80.4547 95.185L73.5442 91.1952C73.344 91.0796 73.0193 91.0796 72.819 91.1952L33.2972 114.013C33.0969 114.129 33.0969 114.316 33.2972 114.432Z" fill="black"/>
<path d="M0.535571 95.5369L25.9744 110.224C26.1747 110.34 26.4993 110.34 26.6996 110.224L33.6101 106.234C33.8103 106.119 33.8103 105.931 33.6101 105.816L8.17122 91.1285C7.97096 91.0129 7.64628 91.0129 7.44602 91.1285L0.535572 95.1182C0.335313 95.2339 0.335312 95.4213 0.535571 95.5369Z" fill="black"/>
<path d="M16.849 86.1181L42.2879 100.805C42.4881 100.921 42.8128 100.921 43.0131 100.805L49.9235 96.8155C50.1238 96.6999 50.1238 96.5124 49.9235 96.3968L24.4847 81.7097C24.2844 81.5941 23.9598 81.5941 23.7595 81.7097L16.849 85.6994C16.6488 85.8151 16.6488 86.0025 16.849 86.1181Z" fill="black"/>
<path d="M33.1647 76.6993L58.6036 91.3864C58.8038 91.5021 59.1285 91.5021 59.3288 91.3864L66.2392 87.3967C66.4395 87.2811 66.4395 87.0936 66.2392 86.978L40.8004 72.2909C40.6001 72.1753 40.2754 72.1753 40.0752 72.2909L33.1647 76.2806C32.9645 76.3962 32.9645 76.5837 33.1647 76.6993Z" fill="black"/>
<path d="M18.8093 59.9605L18.8093 67.94C18.8093 68.1713 18.9716 68.4525 19.1719 68.5681L58.6937 91.386C58.894 91.5016 59.0563 91.4079 59.0563 91.1767L59.0563 83.1972C59.0563 82.9659 58.894 82.6848 58.6937 82.5691L19.1719 59.7512C18.9716 59.6356 18.8093 59.7293 18.8093 59.9605Z" fill="black"/>
<path d="M18.7941 22.1412L18.7941 51.5154C18.7941 51.7467 18.9565 52.0279 19.1567 52.1435L26.0672 56.1332C26.2674 56.2489 26.4298 56.1551 26.4298 55.9239L26.4298 26.5497C26.4298 26.3184 26.2674 26.0372 26.0672 25.9216L19.1567 21.9319C18.9565 21.8162 18.7941 21.91 18.7941 22.1412Z" fill="black"/>
<path d="M35.1098 31.56L35.1098 60.9342C35.1098 61.1655 35.2721 61.4467 35.4724 61.5623L42.3829 65.552C42.5831 65.6677 42.7455 65.5739 42.7455 65.3427L42.7455 35.9685C42.7455 35.7372 42.5831 35.456 42.3829 35.3404L35.4724 31.3507C35.2721 31.235 35.1098 31.3288 35.1098 31.56Z" fill="black"/>
<path d="M51.4211 40.9788L51.4211 70.3531C51.4211 70.5843 51.5835 70.8655 51.7837 70.9811L58.6942 74.9709C58.8945 75.0865 59.0568 74.9927 59.0568 74.7615L59.0568 45.3873C59.0568 45.156 58.8945 44.8748 58.6942 44.7592L51.7837 40.7695C51.5835 40.6539 51.4211 40.7476 51.4211 40.9788Z" fill="black"/>
<g clip-path="url(#clip0_0_3)">
<path d="M254.001 78.3184H296.381V67.1974H254.001V35.5839H303.712V23.5258H241.172V122.823H303.712V110.931H254.001V78.3184Z" fill="black"/>
<path d="M358.775 52.5612C356.172 60.4125 353.548 68.2222 350.924 75.9902C348.195 84.0498 345.488 92.151 342.781 100.294L340.74 106.437L322.705 52.5612H310.251L335.679 122.057H345.759L371.25 52.5612H358.733H358.775Z" fill="black"/>
<path d="M489.459 66.7191L498.248 56.2021C494.041 53.2657 489.626 51.7662 485.086 51.7662C478.068 51.7662 472.632 53.9737 468.467 58.5346L464.718 62.6373V52.5576H452.889V122.053H464.718V80.0476C464.718 74.4246 466.343 70.2178 469.55 67.5105C472.674 64.9073 476.235 63.5952 480.088 63.5952C483.17 63.5952 486.315 64.6365 489.438 66.7191H489.459Z" fill="black"/>
<path d="M549.871 115.743C551.37 114.535 552.787 113.223 554.036 111.869L545.352 104.101C541.291 108.745 536.313 111.078 530.482 111.078C521.319 111.078 510.406 106.975 510.406 87.3782C510.406 67.7812 521.319 63.5952 530.482 63.5952C536.105 63.5952 541.083 65.9277 545.289 70.551L554.036 62.8039C552.745 61.4085 551.35 60.1173 549.871 58.9303C548.059 57.4933 546.102 56.2021 544.019 55.1608C541.936 54.0987 539.708 53.2657 537.355 52.6617C535.022 52.0786 532.523 51.7662 529.92 51.7662C521.902 51.7662 514.571 54.5569 508.115 60.0757C501.743 65.4071 498.515 74.5912 498.515 87.3574C498.515 100.124 501.743 109.308 508.115 114.702C514.696 120.137 522.048 122.886 529.92 122.886C532.523 122.886 535.022 122.595 537.355 121.991C539.708 121.387 541.936 120.554 544.019 119.492C546.122 118.429 548.08 117.159 549.871 115.722V115.743Z" fill="black"/>
<path d="M580.063 104.727V23.4653H568.234V105.935C568.234 111.954 569.838 116.182 572.941 118.472C576.294 120.846 580.459 122.054 585.353 122.054H590.455V111.079H586.853C582.604 111.079 580.084 108.705 580.084 104.727H580.063Z" fill="black"/>
<path d="M627.004 52.4351C620.485 52.4351 613.988 55.0383 607.698 60.1823C601.659 65.2221 598.598 74.677 598.598 88.2554C598.598 97.981 599.597 109.664 607.844 116.183C612.842 120.14 619.09 122.597 625.421 123.347C631.273 124.034 637.292 123.159 642.748 120.993C646.663 119.432 650.287 116.849 653.473 113.413L644.893 106.103C640.228 110.414 634.897 112.601 629.003 112.601C623.693 112.601 619.194 110.976 615.633 107.748C612.363 104.645 610.635 100.147 610.489 94.3781L610.427 92.1706H655.348V81.5286C655.348 72.5944 652.578 65.6594 646.872 60.3489C641.165 55.0383 634.668 52.4559 627.004 52.4559V52.4351ZM610.343 82.8823L610.489 80.5915C610.635 78.0299 611.114 75.6558 611.905 73.5524C612.717 71.3657 613.863 69.533 615.321 68.096C618.382 65.0347 622.318 63.4727 627.004 63.4727C631.69 63.4727 635.376 64.9722 638.396 67.9294C641.374 70.8659 643.081 75.1143 643.435 80.5498L643.581 82.8615H610.322L610.343 82.8823Z" fill="black"/>
<path d="M408.421 52.4351C401.902 52.4351 395.405 55.0383 389.115 60.1823C383.076 65.2221 380.014 74.677 380.014 88.2554C380.014 97.981 381.014 109.664 389.261 116.183C394.259 120.14 400.507 122.597 406.838 123.347C412.69 124.034 418.709 123.159 424.165 120.993C428.08 119.432 431.704 116.849 434.89 113.413L426.31 106.103C421.645 110.414 416.314 112.601 410.42 112.601C405.11 112.601 400.611 110.976 397.05 107.748C393.78 104.645 392.052 100.147 391.906 94.3781L391.844 92.1706H436.765V81.5286C436.765 72.5944 433.995 65.6594 428.289 60.3489C422.582 55.0383 416.085 52.4559 408.421 52.4559V52.4351ZM391.781 82.8823L391.927 80.5915C392.073 78.0299 392.552 75.6558 393.343 73.5524C394.155 71.3657 395.301 69.533 396.758 68.096C399.82 65.0347 403.756 63.4727 408.442 63.4727C413.127 63.4727 416.814 64.9722 419.833 67.9294C422.811 70.8659 424.519 75.1143 424.873 80.5498L425.019 82.8615H391.76L391.781 82.8823Z" fill="black"/>
<path d="M711.623 56.7016C709.041 54.9939 706.063 53.7444 702.772 52.953C699.586 52.1824 695.92 51.7868 691.88 51.7868H691.151H690.214C681.092 51.7868 674.262 54.7024 669.347 60.6793L678.531 67.4685L683.071 63.8865C684.3 63.4492 685.695 63.1576 687.174 62.991C688.569 62.8452 690.152 62.7619 691.797 62.7619C691.797 62.7619 692.567 62.7619 692.922 62.7619C698.607 62.7619 702.543 63.9698 704.98 66.4272C706.729 68.1974 707.604 70.5507 707.541 73.383V82.2965H686.715C679.676 82.3798 674.262 84.3582 670.638 88.1485C667.014 92.0429 665.244 96.6871 665.244 102.393C665.244 107.433 666.66 111.598 669.555 115.055L671.575 117.075C675.407 120.907 681.176 122.948 688.715 123.136C690.901 123.136 692.922 122.969 694.775 122.678C697.107 122.282 699.482 121.636 701.481 120.324C702.626 119.575 703.48 118.617 704.313 117.534C705.25 116.326 706.188 115.118 707.125 113.91L707.583 113.327V122.282H718.995V74.1744C718.954 65.8858 716.517 60.1379 711.644 56.6808L711.623 56.7016ZM707.583 98.2906C707.583 99.5402 707.52 100.706 707.416 101.769C707.166 104.08 706.208 106.267 704.855 108.141C703.897 109.474 702.564 110.495 701.002 110.994C698.524 111.786 695.212 112.181 690.964 112.181H690.422C685.466 112.181 681.884 111.14 679.489 109.037C677.052 106.954 675.824 104.497 675.824 101.727C675.782 97.3327 678.073 92.0013 689.298 91.6472H707.583V98.2906Z" fill="black"/>
<path d="M775.609 67.8221L784.397 57.3051C780.19 54.3687 775.775 52.8693 771.235 52.8693C764.217 52.8693 758.781 55.0768 754.616 59.6376L750.868 63.7403V53.6606H739.039V123.156H750.868V81.1506C750.868 75.5277 752.492 71.3209 755.699 68.6135C758.823 66.0103 762.384 64.6983 766.237 64.6983C769.319 64.6983 772.464 65.7396 775.588 67.8221H775.609Z" fill="black"/>
</g>
<defs>
<clipPath id="clip0_0_3">
<rect width="553.652" height="100.13" fill="white" transform="translate(241.172 23.4653)"/>
</clipPath>
</defs>
</svg>
